<svg xmlns="http://www.w3.org/2000/svg" xmlns:xlink="http://www.w3.org/1999/xlink" width="200px" height="149px" viewBox="0 0 200 149" version="1.1">
    <!-- Generator: Sketch 43.2 (39069) - http://www.bohemiancoding.com/sketch -->
    <title>Account</title>
    <desc>Created with Sketch.</desc>
    <defs>
        <path d="M0.779,32.144 C0.779,14.451 15.18,0.056 32.885,0.056 C50.589,0.056 64.992,14.451 64.992,32.144 C64.992,49.839 50.589,64.234 32.885,64.234 C15.18,64.234 0.779,49.839 0.779,32.144 Z M5.119,32.144 C5.119,47.448 17.574,59.896 32.885,59.896 C48.196,59.896 60.651,47.448 60.651,32.144 C60.651,16.843 48.196,4.394 32.885,4.394 C17.574,4.394 5.119,16.843 5.119,32.144 Z" id="path-1"/>
        <path d="M35.161,0.187 L109.517,0.187 C115.203,0.187 120.148,4.002 121.598,9.484 L142.46,61.432 L142.495,61.574 C142.744,62.568 142.867,63.57 142.868,64.562 L142.868,64.565 C142.87,67.201 142.008,69.76 140.358,71.875 C137.764,75.197 133.494,77.102 128.641,77.102 L11.68,77.102 C8.428,77.102 5.232,75.221 3.134,72.071 C1.669,69.872 0.913,67.35 0.898,64.824 L0.898,64.657 C0.909,63.006 1.237,61.357 1.89,59.796 L23.634,7.855 C25.584,3.196 30.108,0.187 35.161,0.187 Z M6.748,69.667 C8.039,71.606 9.884,72.764 11.68,72.764 L128.641,72.764 C132.148,72.764 135.17,71.468 136.934,69.207 C138.372,67.367 138.86,65.085 138.318,62.766 L117.462,10.833 L117.426,10.689 C116.513,7.06 113.262,4.525 109.517,4.525 L35.161,4.525 C31.864,4.525 28.912,6.488 27.638,9.529 L5.894,61.469 C4.781,64.129 5.1,67.193 6.748,69.667 Z" id="path-3"/>
        <path d="M35.161,0.187 L109.517,0.187 C115.203,0.187 120.148,4.002 121.598,9.484 L142.46,61.432 L142.495,61.574 C142.744,62.567 142.867,63.571 142.868,64.563 L142.868,64.564 C142.87,67.201 142.009,69.76 140.358,71.875 C137.764,75.197 133.494,77.102 128.641,77.102 L11.68,77.102 C8.428,77.102 5.232,75.221 3.134,72.071 C1.669,69.872 0.913,67.35 0.898,64.824 L0.898,64.657 C0.908,63.006 1.237,61.357 1.89,59.796 L23.634,7.855 C25.584,3.196 30.108,0.187 35.161,0.187 Z M6.748,69.667 C8.039,71.606 9.884,72.764 11.68,72.764 L128.641,72.764 C132.148,72.764 135.17,71.468 136.934,69.207 C138.372,67.367 138.86,65.085 138.318,62.766 L117.462,10.833 L117.426,10.689 C116.513,7.06 113.262,4.525 109.517,4.525 L35.161,4.525 C31.864,4.525 28.912,6.488 27.638,9.529 L5.894,61.469 C4.781,64.129 5.1,67.193 6.748,69.667 Z" id="path-5"/>
    </defs>
    <g id="Page-1" stroke="none" stroke-width="1" fill="none" fill-rule="evenodd">
        <g id="Account">
            <g id="Page-1" transform="translate(33.000000, 1.000000)">
                <g id="Group-3" transform="translate(39.000000, 0.841000)">
                    <mask id="mask-2" fill="white">
                        <use xlink:href="#path-1"/>
                    </mask>
                    <g id="Clip-2"/>
                    <polygon id="Fill-1" fill="#FEFEFE" mask="url(#mask-2)" points="-33.119 98.132 98.89 98.132 98.89 -33.841 -33.119 -33.841"/>
                </g>
                <g id="Group-6" transform="translate(0.000000, 68.841000)">
                    <mask id="mask-4" fill="white">
                        <use xlink:href="#path-3"/>
                    </mask>
                    <g id="Clip-5"/>
                    <polygon id="Fill-4" fill="#FEFEFE" mask="url(#mask-4)" points="0.897 81.204 143.266 81.204 143.266 -0.15 0.897 -0.15"/>
                </g>
                <g id="Group-9" transform="translate(0.000000, 68.841000)">
                    <mask id="mask-6" fill="white">
                        <use xlink:href="#path-5"/>
                    </mask>
                    <g id="Clip-8"/>
                    <polygon id="Fill-7" fill="#FEFEFE" mask="url(#mask-6)" points="-33 111 176.766 111 176.766 -33.711 -33 -33.711"/>
                </g>
                <polygon id="Fill-10" fill="#FEFEFE" points="115.9071 144.5734 103.7541 113.9184 107.7891 112.3204 119.9421 142.9754"/>
                <polygon id="Fill-11" fill="#FEFEFE" points="103.7541 113.9178 115.9071 144.5738 119.9421 142.9758 107.7891 112.3198"/>
                <polygon id="Fill-12" fill="#FEFEFE" points="30.0448 144.5734 26.0098 142.9754 38.1628 112.3204 42.1978 113.9184"/>
                <polygon id="Fill-13" fill="#FEFEFE" points="26.0094 142.9761 30.0454 144.5741 42.1974 113.9181 38.1634 112.3201"/>
            </g>
        </g>
    </g>
</svg>