<svg xmlns="http://www.w3.org/2000/svg" xmlns:xlink="http://www.w3.org/1999/xlink" version="1.1" id="Layer_1" x="0px" y="0px" viewBox="0 0 220.5 163.5" style="enable-background:new 0 0 220.5 163.5;" xml:space="preserve" data-outlet="cart-icon">
<style type="text/css">
	.st0{fill:#FFFFFF;}
</style>
<title>Artboard 1 copy</title>
<path class="st0" d="M96.5,153.2c-5.5,0-10-4.5-10-10s4.5-10,10-10s10,4.5,10,10S102,153.2,96.5,153.2z M96.5,138.2  c-2.8,0-5,2.2-5,5s2.2,5,5,5s5-2.2,5-5S99.2,138.2,96.5,138.2z"/>
<path class="st0" d="M153,153.2c-5.5,0-10-4.5-10-10s4.5-10,10-10s10,4.5,10,10S158.5,153.2,153,153.2z M153,138.2c-2.8,0-5,2.2-5,5  s2.2,5,5,5s5-2.2,5-5S155.8,138.2,153,138.2z"/>
<path class="st0" d="M168.7,122.5H83c-6.6,0-12.4-4.5-14-10.9L54,51.8c-1.9-7.7,2.7-15.5,10.4-17.5c1.2-0.3,2.4-0.4,3.6-0.4h125.7  c7.9,0,14.4,6.4,14.4,14.4c0,1.9-0.4,3.8-1.1,5.6l-25,59.9C179.8,119.1,174.5,122.6,168.7,122.5z M68,38.9c-5.2,0-9.4,4.2-9.4,9.4  c0,0.8,0.1,1.5,0.3,2.3l15,59.9c1,4.2,4.8,7.1,9.1,7.1h85.6c3.8,0,7.2-2.3,8.7-5.8l25-59.9c2-4.8-0.3-10.3-5.1-12.3  c-1.1-0.5-2.4-0.7-3.6-0.7L68,38.9z"/>
<rect x="92" y="66.1" class="st0" width="106.1" height="5"/>
<rect x="99.1" y="77.1" class="st0" width="94.4" height="5"/>
<path class="st0" d="M54,51.6l-6-30.7c-0.2-1-1-1.6-2-1.6H19.3v-5h26.8c3.4,0,6.3,2.4,6.9,5.7l6,30.7L54,51.6z"/>
</svg>