<svg xmlns="http://www.w3.org/2000/svg" xmlns:xlink="http://www.w3.org/1999/xlink" width="229px" height="24px" viewBox="0 0 229 24" version="1.1">
    <!-- Generator: Sketch 3.6 (26304) - http://www.bohemiancoding.com/sketch -->
    <title>Imported Layers</title>
    <desc>Created with Sketch.</desc>
    <defs/>
    <g id="Page-1" stroke="none" stroke-width="1" fill="none" fill-rule="evenodd">
        <g id="Home---Not-Scrolled" transform="translate(-576.000000, -44.000000)" fill="#ffffff">
            <g id="Imported-Layers" transform="translate(576.217634, 44.034865)">
                <path d="M148.893791,6.65157476 C148.893791,6.81076308 148.265065,6.97099185 148.108268,6.97099185 C147.919189,6.97099185 147.793649,6.90700439 147.730623,6.77954968 C146.599223,3.68422121 144.430708,1.4821161 141.004228,1.4821161 C135.189922,1.4821161 132.455195,7.09844655 132.455195,12.2996388 C132.455195,21.8088 140.155679,22.4793678 140.910457,22.4793678 C145.907983,22.4793678 147.102409,19.2883183 148.108268,17.4056302 C148.139525,17.2781755 148.265065,17.1502006 148.390606,17.1502006 C149.239155,17.1502006 149.302694,17.2459217 149.302694,17.4696177 C149.302694,18.2348661 148.831277,20.9160969 148.736482,22.0007624 C148.705225,22.3519131 148.485401,22.4476342 148.171295,22.5111014 C145.184974,23.181149 142.639326,23.7559957 140.407272,23.7559957 C132.643761,23.7559957 126.797685,19.926112 126.797685,11.5021365 C126.797685,7.35335595 129.437617,0.205488193 139.779058,0.205488193 C143.896265,0.205488193 146.159576,1.41812864 146.78779,1.41812864 C147.290976,1.41812864 147.605082,0.812068528 147.887932,0.812068528 C148.202039,0.812068528 148.328092,1.00351069 148.390606,1.73754573 C148.579685,3.49277905 148.893791,5.59864286 148.893791,6.65157476" id="Fill-1"/>
                <path d="M177.689134,11.980742 C177.689134,16.0332812 175.488849,23.7559957 164.707762,23.7559957 C157.698517,23.7559957 152.669734,19.1925972 152.669734,11.980742 C152.669734,4.92859528 158.3585,0.205488193 165.651107,0.205488193 C172.659839,0.205488193 177.689134,4.76888674 177.689134,11.980742 L177.689134,11.980742 Z M158.327243,11.980742 C158.327243,15.969814 159.710235,22.4793678 165.179178,22.4793678 C170.868456,22.4793678 172.031625,16.894771 172.031625,11.980742 C172.031625,7.57705196 170.52258,1.4821161 165.179178,1.4821161 C159.4899,1.4821161 158.327243,7.25815509 158.327243,11.980742 L158.327243,11.980742 Z" id="Fill-2"/>
                <path d="M183.462448,6.0132608 C183.462448,2.21563092 183.273881,1.80153319 180.72772,1.80153319 C180.632924,1.80153319 180.224534,1.6095708 180.224534,1.41812864 C180.224534,0.588892744 180.256304,0.524905282 180.790234,0.524905282 L192.608438,0.524905282 C203.672376,0.524905282 205.149651,7.96045651 205.149651,11.3106944 C205.149651,17.4056302 201.566887,23.3408576 191.539553,23.3408576 L180.790234,23.3408576 C180.476127,23.3408576 180.381844,23.2134029 180.381844,22.9262396 C180.381844,22.1282171 180.476127,22.0647499 181.13611,22.0647499 C183.399421,22.0647499 183.462448,21.6496117 183.462448,16.9910123 L183.462448,6.0132608 L183.462448,6.0132608 Z M188.365178,19.8309111 C188.365178,21.8733077 188.899621,22.0647499 190.597232,22.0647499 C195.877096,22.0647499 199.492142,18.3628411 199.492142,11.6935787 C199.492142,8.78969241 198.454514,1.80153319 190.376896,1.80153319 C189.276754,1.80153319 188.365178,1.89673405 188.365178,3.2368292 L188.365178,19.8309111 L188.365178,19.8309111 Z" id="Fill-3"/>
                <path d="M210.923477,6.0132608 C210.923477,2.21563092 210.73491,1.80153319 208.18875,1.80153319 C207.779847,1.80153319 207.371457,1.6095708 207.371457,1.41812864 C207.371457,0.588892744 207.403226,0.524905282 207.937157,0.524905282 L225.287329,0.524905282 C225.41287,0.524905282 225.601436,0.620626364 225.601436,0.748081065 C225.601436,1.22668648 226.984941,4.92859528 226.984941,5.40720069 C226.984941,5.69436394 226.795862,5.69436394 226.324445,5.69436394 C225.853029,5.69436394 225.853029,5.66211009 225.161789,4.80062036 C224.721117,4.29028133 223.778797,3.07764088 222.615628,2.47158077 C221.672283,1.99297536 221.578512,1.96072151 218.969837,1.96072151 C215.921003,1.96072151 215.826207,1.96072151 215.826207,3.907397 L215.826207,11.2784405 L217.869183,11.2784405 C220.321573,11.2784405 220.792477,10.5766593 221.200867,8.311087 C221.327432,7.57705196 221.389946,7.3856098 221.892619,7.3856098 C222.395292,7.3856098 222.584371,7.41786364 222.584371,7.76849412 C222.584371,8.08791121 222.490088,9.01338841 222.490088,11.9167545 C222.490088,13.3848246 222.584371,14.7571736 222.584371,16.1612562 C222.584371,16.4161656 222.301521,16.4484194 221.704052,16.4484194 C221.484229,16.4484194 221.452972,16.4161656 221.327432,15.746118 C220.855503,12.9696864 220.60391,12.5550685 216.895093,12.5550685 L215.826207,12.5550685 L215.826207,20.788122 C215.826207,21.9372952 215.826207,22.0647499 223.401151,22.0647499 C223.967363,22.0647499 224.973223,21.6173579 225.507665,20.883843 C227.299048,18.3628411 227.424588,18.1074114 227.990287,18.1074114 C228.493473,18.1074114 228.68204,18.1074114 228.68204,18.3311074 C228.68204,18.5225496 227.644924,21.2349937 226.984941,22.8622521 C226.795862,23.3408576 226.701578,23.3408576 225.884286,23.3408576 L207.937157,23.3408576 C207.622537,23.3408576 207.528767,23.2134029 207.528767,22.9262396 C207.528767,22.1282171 207.622537,22.0647499 208.59714,22.0647499 C210.860451,22.0647499 210.923477,21.6496117 210.923477,16.9910123 L210.923477,6.0132608" id="Fill-4"/>
                <path d="M56.3614159,20.9545934 L47.5346565,1.03472409 L47.5151849,0.988944441 L45.4640113,0.988944441 L45.840632,1.86552065 C45.8524174,1.89257226 46.0584058,2.35140919 46.4006951,3.11457673 C48.2469052,7.22746192 53.8644463,19.7450743 54.827263,21.9284514 C55.1593041,22.6832953 55.7332024,23.1338087 56.3614159,23.1338087 C56.8384688,23.1338087 57.4923029,22.7993051 57.8981309,21.8592617 C58.6503475,20.1061092 63.6986021,8.88385282 65.8543072,4.09155604 C66.4686858,2.72753062 66.8391575,1.9045374 66.8550422,1.86552065 L67.2372994,0.988944441 L65.212771,0.988944441 L56.3614159,20.9545934" id="Fill-5"/>
                <path d="M14.3869108,11.7856582 C16.0696623,10.783188 17.0309418,9.02951534 17.0309418,6.94914247 L17.0309418,6.88879657 C17.0309418,5.32708631 16.5093093,3.97190468 15.5224094,2.96995466 C14.2454858,1.67407849 12.2168582,0.988944441 9.65481257,0.988944441 L0.0717372763,0.988944441 L0.0717372763,20.1888247 C0.0717372763,22.0637094 1.22875706,23.2284893 3.09238902,23.2284893 L10.1267414,23.2284893 C15.1340033,23.2284893 18.1239104,20.9634372 18.1239104,17.1694489 L18.1239104,17.1096232 C18.1239104,14.734804 16.7301576,12.7548342 14.3869108,11.7856582 L14.3869108,11.7856582 Z M15.1509128,6.97983564 C15.1509128,9.98724638 12.556073,11.0594265 10.1267414,11.0594265 L1.97021305,11.0594265 L1.97021305,2.83729773 L9.62509284,2.83729773 C13.0853916,2.83729773 15.1509128,4.36259236 15.1509128,6.9184493 L15.1509128,6.97983564 L15.1509128,6.97983564 Z M10.1308406,21.3697316 L3.09238902,21.3260328 C2.29559284,21.3260328 1.97021305,20.9972517 1.97021305,20.1888247 L1.97021305,12.9088203 L10.6283899,12.9088203 C14.7722424,12.9088203 16.2428566,15.1879184 16.2428566,17.1397962 L16.2428566,17.200142 C16.2428566,19.8496392 14.0143893,21.3697316 10.1308406,21.3697316 L10.1308406,21.3697316 Z" id="Fill-6"/>
                <path d="M25.901256,20.1888247 L25.901256,12.9088203 L38.4188983,12.9088203 L38.4188983,11.0594265 L25.901256,11.0594265 L25.901256,2.83729773 L39.5959021,2.83729773 L39.5959021,0.988944441 L24.001243,0.988944441 L24.001243,20.1888247 C24.001243,22.0637094 25.1582628,23.2284893 27.0224072,23.2284893 L40.2061813,23.2284893 L40.2061813,21.3260328 L27.0224072,21.3260328 C26.225611,21.3260328 25.901256,20.9972517 25.901256,20.1888247" id="Fill-7"/>
                <path d="M74.3259671,20.1888247 L74.3259671,12.9088203 L86.8436094,12.9088203 L86.8436094,11.0594265 L74.3259671,11.0594265 L74.3259671,2.83729773 L88.0206132,2.83729773 L88.0206132,0.988944441 L72.4249293,0.988944441 L72.4249293,20.1888247 C72.4249293,22.0637094 73.5824615,23.2284893 75.4471183,23.2284893 L88.6308924,23.2284893 L88.6308924,21.3260328 L75.4460935,21.3260328 C74.6503221,21.3260328 74.3259671,20.9972517 74.3259671,20.1888247" id="Fill-8"/>
                <path d="M97.4935205,21.3260328 C96.6982616,21.3260328 96.3739066,20.9972517 96.3739066,20.1888247 L96.3739066,0.988944441 L94.4738936,0.988944441 L94.4738936,20.1888247 C94.4738936,22.0637094 95.630401,23.2284893 97.4950577,23.2284893 L110.513324,23.2284893 L110.513324,21.3260328 L97.4935205,21.3260328" id="Fill-9"/>
                <path d="M112.74999,16.9467933 L118.49922,5.29899425 L117.480551,5.29899425 L111.731833,16.9467933 L112.74999,16.9467933" id="Fill-10"/>
                <path d="M117.578421,16.9467933 L123.327139,5.29899425 L122.308982,5.29899425 L116.559751,16.9467933 L117.578421,16.9467933" id="Fill-11"/>
            </g>
        </g>
    </g>
</svg>