<svg id="Layer_1" data-name="Layer 1" xmlns="http://www.w3.org/2000/svg" viewBox="0 0 158.5 22.33"><defs><style>.cls-1{fill:#191b18;}.cls-2{font-size:16px;font-family:SabonMTPro-Semibold, Sabon MT Pro;font-weight:700;letter-spacing:0.02em;}</style></defs><title>BevelCodeNo</title><g id="Page-1"><g id="Home---Not-Scrolled"><g id="Imported-Layers"><path id="Fill-1" class="cls-1" d="M76.33,8.54c0,.08-.3.15-.37.15a.18.18,0,0,1-.18-.09,3.36,3.36,0,0,0-3.2-2.52c-2.76,0-4.06,2.67-4.06,5.14,0,4.52,3.66,4.84,4,4.84,2.38,0,2.94-1.52,3.42-2.41a.16.16,0,0,1,.13-.12c.4,0,.43,0,.43.15,0,.36-.22,1.64-.27,2.15,0,.17-.12.21-.27.24a18,18,0,0,1-3.69.59c-3.69,0-6.47-1.82-6.47-5.82,0-2,1.25-5.37,6.17-5.37A11.77,11.77,0,0,1,75.33,6c.24,0,.39-.29.52-.29s.21.09.24.44c.09.83.24,1.84.24,2.34"/><path id="Fill-2" class="cls-1" d="M90,11.07c0,1.93-1,5.6-6.17,5.6a5.36,5.36,0,0,1-5.72-5.6c0-3.35,2.7-5.6,6.17-5.6A5.36,5.36,0,0,1,90,11.07Zm-9.2,0c0,1.9.66,5,3.26,5s3.26-2.65,3.26-5c0-2.09-.72-5-3.26-5-2.7,0-3.26,2.75-3.26,5Z"/><path id="Fill-3" class="cls-1" d="M92.76,8.23c0-1.81-.09-2-1.3-2,0,0-.24-.09-.24-.18,0-.39,0-.42.27-.42h5.62c5.26,0,6,3.53,6,5.13,0,2.9-1.7,5.72-6.47,5.72H91.49c-.15,0-.19-.06-.19-.2,0-.38,0-.41.36-.41,1.08,0,1.11-.2,1.11-2.41V8.23Zm2.33,6.57c0,1,.25,1.06,1.06,1.06,2.51,0,4.23-1.76,4.23-4.93,0-1.38-.49-4.7-4.33-4.7-.52,0-1,0-1,.68V14.8Z"/><path id="Fill-4" class="cls-1" d="M105.82,8.23c0-1.81-.09-2-1.3-2-.19,0-.39-.09-.39-.18,0-.39,0-.42.27-.42h8.25c.06,0,.15,0,.15.11,0,.23.66,2,.66,2.21s-.09.14-.31.14-.22,0-.55-.42a4.49,4.49,0,0,0-1.21-1.11c-.45-.23-.49-.24-1.73-.24-1.45,0-1.49,0-1.49.93v3.5h1c1.17,0,1.39-.33,1.58-1.41.06-.35.09-.44.33-.44s.33,0,.33.18,0,.59,0,2c0,.7,0,1.35,0,2,0,.12-.13.14-.42.14-.1,0-.12,0-.18-.33-.22-1.32-.34-1.52-2.11-1.52h-.51v3.91c0,.55,0,.61,3.6.61a1.45,1.45,0,0,0,1-.56c.85-1.2.91-1.32,1.18-1.32s.33,0,.33.11-.49,1.38-.81,2.15c-.09.23-.13.23-.52.23H104.4c-.15,0-.19-.06-.19-.2,0-.38,0-.41.51-.41,1.08,0,1.11-.2,1.11-2.41V8.23"/><path id="Fill-5" class="cls-1" d="M32.35,15.34l-4.2-9.47v0h-1l.18.42.27.59c.88,2,3.55,7.9,4,8.94a.84.84,0,0,0,.73.57.86.86,0,0,0,.73-.61c.36-.83,2.76-6.17,3.78-8.45l.48-1.06.18-.42h-1l-4.21,9.49"/><path id="Fill-6" class="cls-1" d="M12.4,11a2.59,2.59,0,0,0,1.26-2.3v0a2.59,2.59,0,0,0-.72-1.86,3.82,3.82,0,0,0-2.79-.94H5.59V15A1.34,1.34,0,0,0,7,16.42h3.34c2.38,0,3.8-1.08,3.8-2.88v0A2.7,2.7,0,0,0,12.4,11Zm.36-2.28c0,1.43-1.23,1.94-2.39,1.94H6.5V6.72h3.64c1.64,0,2.63.73,2.63,1.94v0Zm-2.39,6.84L7,15.51c-.38,0-.53-.16-.53-.54V11.51h4.12c2,0,2.67,1.08,2.67,2v0c0,1.26-1.06,2-2.91,2Z"/><path id="Fill-7" class="cls-1" d="M17.87,15V11.51h5.95v-.88H17.87V6.72h6.51V5.84H17V15a1.34,1.34,0,0,0,1.44,1.44h6.27v-.9H18.4c-.38,0-.53-.16-.53-.54"/><path id="Fill-8" class="cls-1" d="M40.89,15V11.51h5.95v-.88H40.89V6.72H47.4V5.84H40V15a1.34,1.34,0,0,0,1.44,1.44h6.27v-.9H41.42c-.38,0-.53-.16-.53-.54"/><path id="Fill-9" class="cls-1" d="M51.9,15.51c-.38,0-.53-.16-.53-.54V5.84h-.9V15a1.34,1.34,0,0,0,1.44,1.44h6.19v-.9H51.9"/><path id="Fill-10" class="cls-1" d="M59.15,13.43l2.73-5.54H61.4l-2.73,5.54h.48"/><path id="Fill-11" class="cls-1" d="M61.45,13.43l2.73-5.54H63.7L61,13.43h.48"/></g></g></g><text class="cls-2" transform="translate(122.92 16.45)"># 93</text></svg>