<?xml version="1.0" encoding="UTF-8"?>
<svg width="37px" height="39px" viewBox="0 0 37 39" version="1.1" xmlns="http://www.w3.org/2000/svg" xmlns:xlink="http://www.w3.org/1999/xlink">
    <!-- Generator: Sketch 43.2 (39069) - http://www.bohemiancoding.com/sketch -->
    <title>GRAPH_X</title>
    <desc>Created with Sketch.</desc>
    <defs></defs>
    <g id="Page-1" stroke="none" stroke-width="1" fill="none" fill-rule="evenodd">
        <g id="GRAPH_X" fill="#9B9B9B">
            <path d="M13.450474,14.1326006 C13.6256974,13.9573772 13.9069252,13.9545117 14.0841752,14.1317617 L23.2969583,23.3445449 C23.4717184,23.519305 23.4727999,23.8015656 23.2961194,23.9782461 L22.9778551,24.2965103 C22.8026317,24.4717338 22.5214039,24.4745993 22.3441539,24.2973493 L13.1313708,15.0845661 C12.9566107,14.909806 12.9555292,14.6275454 13.1322097,14.4508649" id="Rectangle-3-Copy"></path>
            <path d="M23.2965103,14.450474 C23.4717338,14.6256974 23.4745993,14.9069252 23.2973493,15.0841752 L14.0845661,24.2969583 C13.909806,24.4717184 13.6275454,24.4727999 13.4508649,24.2961194 L13.1326006,23.9778551 C12.9573772,23.8026317 12.9545117,23.5214039 13.1317617,23.3441539 L22.3445449,14.1313708 C22.519305,13.9566107 22.8015656,13.9555292 22.9782461,14.1322097" id="Rectangle-3-Copy"></path>
        </g>
    </g>
</svg>